<svg width="88" height="88" viewBox="0 0 88 88" fill="none" xmlns="http://www.w3.org/2000/svg">
<circle cx="44" cy="44" r="42" transform="rotate(-180 44 44)" stroke="white" stroke-width="4"/>
<path fill-rule="evenodd" clip-rule="evenodd" d="M38.4961 56.4093C37.7177 57.193 36.4514 57.1975 35.6676 56.4191L24.5907 45.4191C24.2126 45.0437 24 44.5328 24 44C24 43.4671 24.2126 42.9563 24.5907 42.5809L35.6676 31.5809C36.4514 30.8025 37.7177 30.807 38.4961 31.5907C39.2744 32.3745 39.27 33.6408 38.4862 34.4191L30.8523 42L62 42C63.1046 42 64 42.8954 64 44C64 45.1046 63.1046 46 62 46L30.8523 46L38.4862 53.5809C39.27 54.3592 39.2744 55.6255 38.4961 56.4093Z" fill="white"/>
</svg>
