<svg width="88" height="88" viewBox="0 0 88 88" fill="none" xmlns="http://www.w3.org/2000/svg">
<circle cx="44" cy="44" r="42" stroke="white" stroke-width="4"/>
<path fill-rule="evenodd" clip-rule="evenodd" d="M49.5039 31.5907C50.2823 30.807 51.5486 30.8025 52.3324 31.5809L63.4093 42.5809C63.7874 42.9563 64 43.4672 64 44C64 44.5328 63.7874 45.0437 63.4093 45.4191L52.3324 56.4191C51.5486 57.1975 50.2823 57.193 49.5039 56.4093C48.7256 55.6255 48.73 54.3592 49.5138 53.5809L57.1477 46H26C24.8954 46 24 45.1046 24 44C24 42.8954 24.8954 42 26 42H57.1477L49.5138 34.4191C48.73 33.6408 48.7256 32.3745 49.5039 31.5907Z" fill="white"/>
</svg>
